# xmcd CD database file
#
# Track frame offsets:
#	150
#	22662
#	44345
#	63322
#
# Disc length: 1143 seconds
#
# Revision: 0
# Processed by: cddbd v1.5.1PL0 Copyright (c) Steve Scherf et al.
# Submitted via: CDex 1.51
#
DISCID=26047504
DTITLE=小林建樹 - Sweet Rendez-Vous
DYEAR=1900
DGENRE=
TTITLE0=Sweet Rendez-Vous
TTITLE1=歳ヲとること
TTITLE2=Prism
TTITLE3=Sweet Rendez-Vous（Instrumental）
EXTD=
EXTT0=
EXTT1=
EXTT2=
EXTT3=
PLAYORDER=
